<svg width="360" height="250" viewBox="0 0 360 250" fill="none" xmlns="http://www.w3.org/2000/svg">
<path fill-rule="evenodd" clip-rule="evenodd" d="M136.062 -225.779C197.463 -266.77 279.043 -276.652 345.018 -276.335C409.931 -276.022 469.74 -260.481 495.544 -224.049C519.524 -190.191 491.35 -138.678 475.399 -92.2478C462.55 -54.8484 440.956 -18.8647 412.297 18.2548C379.888 60.231 354.446 108.041 298.539 136.821C241.214 166.331 174.919 173.293 121.762 167.82C72.7139 162.77 50.3207 132.504 21.3754 108.285C-6.42164 85.0267 -48.7834 67.0894 -43.1553 29.8311C-37.5869 -7.03216 23.0058 -41.1148 49.6928 -79.1773C84.5414 -128.88 76.0314 -185.703 136.062 -225.779Z" fill="url(#paint0_linear)"/>
<defs>
<linearGradient id="paint0_linear" x1="159.141" y1="-239.713" x2="323.115" y2="126.229" gradientUnits="userSpaceOnUse">
<stop stop-color="#147874"/>
<stop offset="1" stop-color="#3AC1C1"/>
</linearGradient>
</defs>
</svg>
