<svg width="333" height="337" viewBox="0 0 333 337" fill="none" xmlns="http://www.w3.org/2000/svg">
<path fill-rule="evenodd" clip-rule="evenodd" d="M87.7218 252.87C67.3359 239.961 65.8593 210.998 60.4194 187.077C54.7981 162.357 47.0807 136.984 55.7769 112.395C64.8795 86.657 84.509 64.7416 108.394 51.4255C131.701 38.4317 159.661 33.7525 184.392 40.6908C206.979 47.0277 217.237 71.0927 234.379 86.7711C251.111 102.074 275.235 109.986 283.524 131.359C292.5 154.504 289.272 181.331 280.421 205.489C271.051 231.064 258.172 260.806 232.709 270.053C207.382 279.252 185.202 252.648 159.087 249.553C135.053 246.705 107.852 265.616 87.7218 252.87Z" fill="url(#paint0_linear)"/>
<path fill-rule="evenodd" clip-rule="evenodd" d="M123.417 69.7639C125.226 76.5448 127.582 91.7865 125.177 94.1774H109.965C109.963 94.1499 109.962 94.1225 109.96 94.0952C104.322 93.4602 99.9362 88.5953 99.9362 82.688V71.4774C99.9362 65.1386 104.986 60 111.215 60H112.264C117.92 60 122.604 64.2379 123.417 69.7639Z" fill="#191847"/>
<path fill-rule="evenodd" clip-rule="evenodd" d="M105.844 80.5474C103.427 77.66 101.791 74.1215 102.064 70.1565C102.852 58.7322 118.479 61.2454 121.519 67.0114C124.559 72.7774 124.198 87.4034 120.269 88.4339C118.702 88.8449 115.364 87.8382 111.967 85.7545L114.1 101.105H101.51L105.844 80.5474Z" fill="#D4A181"/>
<path fill-rule="evenodd" clip-rule="evenodd" d="M109.247 78.6174C109.828 84.9583 109.595 92.1994 107.866 93.9183H92.6536C91.806 78.9316 99.9977 84.7351 99.9977 70.6248C100.508 70.117 100.991 69.6144 101.469 69.1809L101.452 68.7659C104.086 63.2778 107.428 60.5338 111.478 60.5338C117.552 60.5338 119.47 63.4103 121.102 65.8525C119.881 70.1152 115.144 70.7472 110.934 73.4043C110.438 72.9941 109.805 72.7482 109.116 72.7482C107.523 72.7482 106.231 74.0627 106.231 75.6843C106.231 77.3058 107.523 78.6204 109.116 78.6204C109.16 78.6204 109.204 78.6194 109.247 78.6174Z" fill="#191847"/>
<path fill-rule="evenodd" clip-rule="evenodd" d="M81.2653 197.776C93.8496 201.358 104.707 203.149 113.837 203.149C122.968 203.149 131.448 200.391 139.28 194.875C126.965 191.199 116.823 189.36 108.854 189.36C100.885 189.36 91.6889 192.166 81.2653 197.776Z" fill="#1F28CF"/>
<path fill-rule="evenodd" clip-rule="evenodd" d="M124.731 208.312C124.61 208.127 124.507 207.925 124.426 207.706C122.744 203.179 95.8008 154.342 93.1166 145.414H123.451C125.492 152.202 134.677 194.804 135.97 203.303C140.049 216.711 148.447 260.132 149.519 263.14C150.646 266.305 144.301 269.601 142.61 265.711C139.919 259.521 133.508 242.393 130.654 231.934C127.978 222.13 125.799 213.309 124.731 208.312Z" fill="#BA8B72"/>
<path fill-rule="evenodd" clip-rule="evenodd" d="M99.9136 214.275C87.5955 217.443 42.5388 223.171 39.4469 224.069C36.2662 224.993 33.4773 218.321 37.4088 216.876C43.6645 214.577 60.9018 209.263 71.3528 207.095C79.7589 205.351 87.4297 203.928 92.5796 203.094C92.1433 188.373 90.1489 153.044 91.4561 145.414H118.296C117.043 152.731 106.446 206.12 104.477 211.464C103.852 213.372 101.987 214.215 99.9136 214.275Z" fill="#D4A181"/>
<path fill-rule="evenodd" clip-rule="evenodd" d="M37.6944 215.1C36.0496 214.788 34.8443 214.701 34.0783 214.839C33.1467 215.006 31.8147 215.408 30.0821 216.045C30.2727 217.144 31.9853 227.028 35.2199 245.696C37.8566 246.018 39.131 245.33 39.0429 243.634C38.9548 241.938 38.8961 240.527 38.8667 239.4L42.5162 224.535C42.5864 224.249 42.4155 223.959 42.1344 223.888C42.1296 223.886 42.1248 223.885 42.1199 223.884L39.8548 223.377C38.8838 221.967 38.3151 220.781 38.1486 219.82C38.0134 219.039 38.1364 217.906 38.5177 216.419L38.5177 216.419C38.664 215.848 38.3281 215.265 37.7675 215.116C37.7433 215.11 37.7189 215.104 37.6944 215.1Z" fill="#E4E4E4"/>
<path fill-rule="evenodd" clip-rule="evenodd" d="M140.684 265.207C140.098 266.801 139.804 267.994 139.804 268.786C139.804 269.748 139.962 271.153 140.277 273C141.374 273 151.237 273 169.864 273C170.633 270.413 170.189 269.017 168.533 268.811C166.876 268.604 165.5 268.418 164.404 268.252L150.652 262.013C150.388 261.893 150.078 262.014 149.96 262.283C149.958 262.288 149.956 262.293 149.954 262.297L149.07 264.479C147.536 265.208 146.29 265.572 145.331 265.572C144.552 265.572 143.477 265.251 142.104 264.611L142.104 264.611C141.577 264.365 140.955 264.601 140.713 265.137C140.703 265.16 140.693 265.183 140.684 265.207Z" fill="#E4E4E4"/>
<path fill-rule="evenodd" clip-rule="evenodd" d="M91.5429 145.414C103.37 141.97 114.561 141.97 125.116 145.414C128.788 162.463 137.71 169.23 139.28 195.369C121.444 204.388 99.4116 188.937 81.0513 197.732C75.8055 185.43 83.1496 155.804 91.5429 145.414Z" fill="#2B44FF"/>
<path fill-rule="evenodd" clip-rule="evenodd" d="M142.427 124.226L163.139 121.351C167.282 119.006 171.094 117.418 174.573 116.588C175.553 116.559 177.111 116.921 174.79 118.89C172.469 120.859 170.114 123.037 170.528 124.088C170.941 125.138 173.1 124.747 173.457 126.364C173.695 127.441 170.193 127.616 162.949 126.889L146.143 133.669L142.427 124.226ZM77.3633 129.105L88.8502 129.149C76.2545 157.994 69.687 173.097 69.1475 174.457C67.9336 177.518 70.5023 182.181 71.6007 184.686C68.0231 186.315 68.4043 180.282 63.8912 182.419C59.7718 184.369 56.6383 187.903 51.8789 184.914C51.2938 184.547 50.6526 183.163 52.2018 182.082C56.0616 179.389 61.6236 174.675 62.3752 173.124C63.4 171.008 68.3961 156.335 77.3633 129.105Z" fill="#D4A181"/>
<path fill-rule="evenodd" clip-rule="evenodd" d="M108.827 92.03L117.821 92.6397C120.036 113.033 132.101 125.914 159.114 121.553L162.703 147.815C137.455 151.136 115.313 140.849 110.775 112.998C109.6 105.789 108.673 98.2854 108.827 92.03Z" fill="#AFB9C5"/>
<path fill-rule="evenodd" clip-rule="evenodd" d="M104.39 89.3693L118.017 92.5453C118.017 116.397 125.483 131.614 129.313 149.15H92.51C91.9916 155.21 91.6732 161.438 91.5073 167.835H63.9509C70.1954 134.024 83.3753 107.866 103.491 89.3608H104.383L104.39 89.3693Z" fill="#C5CFD6"/>
<path fill-rule="evenodd" clip-rule="evenodd" d="M98.3165 115.123C97.368 129.986 97.9258 141.328 99.9899 149.15H92.51C93.537 137.146 95.3491 125.804 98.3165 115.123V115.123Z" fill="black" fill-opacity="0.1"/>
<path fill-rule="evenodd" clip-rule="evenodd" d="M264.539 124.118C266.834 121.375 268.387 118.012 268.128 114.245C267.38 103.39 252.54 105.778 249.654 111.256C246.767 116.735 247.11 130.633 250.841 131.612C252.328 132.003 255.498 131.046 258.724 129.066L256.699 143.652H268.654L264.539 124.118Z" fill="#B28B67"/>
<path fill-rule="evenodd" clip-rule="evenodd" d="M244.357 103.661C244.605 102.775 245.271 102.016 246.168 101.791C246.386 101.737 246.61 101.715 246.834 101.724C246.915 101.727 246.937 101.751 246.975 101.694C247.003 101.651 247.003 101.548 247.015 101.498C247.05 101.343 247.095 101.19 247.15 101.041C247.338 100.532 247.653 100.082 248.034 99.7031C248.745 98.994 249.707 98.5046 250.705 98.416C251.252 98.3676 251.795 98.4581 252.312 98.6391C252.579 98.7329 252.839 98.8496 253.091 98.9786C253.167 99.0175 253.414 99.2077 253.491 99.1954C253.575 99.1818 253.744 98.9684 253.813 98.9149C254.66 98.2527 255.707 97.9924 256.763 98.0002C257.954 98.0093 259.102 98.0699 260.095 98.8096C260.306 98.9662 260.506 99.1376 260.697 99.3182C260.797 99.4132 260.895 99.5118 260.987 99.6145C261.043 99.6765 261.098 99.7398 261.15 99.8049C261.24 99.9153 261.225 99.9516 261.35 99.8745C261.828 99.5787 262.382 99.4403 262.941 99.5101C263.272 99.5516 263.595 99.653 263.901 99.7864C264.005 99.8318 264.246 100.013 264.358 100.015C264.468 100.016 264.706 99.8485 264.819 99.8058C265.433 99.5753 266.094 99.5184 266.738 99.625C267.403 99.7349 268.057 100.005 268.62 100.378C268.891 100.558 269.127 100.757 269.317 101.024C269.399 101.139 269.473 101.261 269.566 101.368C269.621 101.431 269.728 101.495 269.758 101.574C269.74 101.527 270.485 101.234 270.555 101.216C270.93 101.116 271.311 101.136 271.677 101.259C272.367 101.49 272.96 102.008 273.447 102.539C273.697 102.812 273.916 103.114 274.102 103.435C274.191 103.589 274.273 103.747 274.347 103.909C274.383 103.987 274.407 104.085 274.455 104.156C274.516 104.247 274.557 104.248 274.669 104.288C275.233 104.489 275.747 104.83 276.139 105.29C276.535 105.756 276.792 106.33 276.9 106.934C276.906 106.969 276.91 107.117 276.93 107.136C276.958 107.162 277.072 107.151 277.115 107.156C277.263 107.174 277.411 107.2 277.557 107.235C277.825 107.3 278.086 107.395 278.333 107.519C279.297 108.005 279.986 108.915 280.323 109.939C280.677 111.013 280.67 112.244 280.248 113.299C280.179 113.469 280.098 113.635 280.003 113.791C279.944 113.887 279.925 113.887 279.963 113.988C280.006 114.1 280.083 114.209 280.133 114.318C280.298 114.676 280.413 115.055 280.485 115.442C280.604 116.077 280.663 116.744 280.546 117.384C280.491 117.681 280.396 117.971 280.251 118.236C280.177 118.371 280.091 118.499 279.993 118.617C279.942 118.679 279.889 118.737 279.832 118.794C279.8 118.826 279.758 118.854 279.73 118.89C279.664 118.977 279.65 118.905 279.684 119.034C279.732 119.213 279.842 119.39 279.908 119.565C279.977 119.745 280.04 119.928 280.097 120.112C280.212 120.485 280.31 120.866 280.371 121.252C280.488 121.994 280.468 122.785 280.123 123.466C279.975 123.758 279.764 124.013 279.507 124.212C279.382 124.309 279.246 124.393 279.103 124.462C279.03 124.498 278.936 124.513 278.903 124.585C278.867 124.663 278.92 124.817 278.932 124.904C279.039 125.658 279.092 126.451 278.871 127.191C278.668 127.872 278.221 128.474 277.641 128.872C276.516 129.645 274.998 129.601 273.816 128.983C273.507 128.821 273.219 128.621 272.962 128.385C272.306 129.283 270.958 129.255 270.001 128.999C268.808 128.68 267.85 127.835 267.299 126.726C266.545 127.66 264.962 127.357 264.439 126.343C264.311 126.095 264.235 125.821 264.198 125.544C264.178 125.399 264.191 125.252 264.176 125.108C264.157 124.924 264.036 124.745 263.967 124.567C263.832 124.22 263.748 123.862 263.744 123.489C263.742 123.294 263.767 123.103 263.785 122.91C263.801 122.736 263.754 122.573 263.727 122.401C264.033 122.453 264.406 122.369 264.694 122.278C264.977 122.19 265.242 121.956 265.441 121.743C265.905 121.248 266.188 120.599 266.382 119.953C266.807 118.535 266.633 116.834 265.232 116.056C264.58 115.693 262.625 115.694 261.848 115.873C261.031 116.062 260.105 117.898 260.059 118.07C260.031 118.177 260.045 118.309 259.949 118.38C259.737 118.537 259.388 118.265 259.232 118.131C258.962 117.9 258.77 117.592 258.603 117.28C258.241 116.601 257.948 115.872 257.742 115.128C257.582 114.554 257.48 113.963 257.272 113.404C257.065 112.848 256.739 112.351 256.231 112.036C255.679 111.693 255.045 111.512 254.439 111.297C253.838 111.084 253.247 110.823 252.782 110.37C252.679 110.27 252.58 110.164 252.497 110.047C252.432 109.954 252.368 109.777 252.269 109.719C252.114 109.627 251.889 109.865 251.756 109.951C251.098 110.376 250.55 110.97 250.107 111.618C249.667 112.262 249.306 112.883 249.012 113.602C248.794 114.136 248.659 114.82 248.276 115.257C248.105 115.453 246.834 115.571 246.423 115.4C246.011 115.23 245.55 114.787 245.412 114.509C245.27 114.225 245.237 113.913 245.297 113.602C245.333 113.419 245.405 113.248 245.445 113.069C245.478 112.918 245.509 112.775 245.581 112.637C245.718 112.375 245.951 112.187 246.233 112.108C245.94 111.833 245.697 111.503 245.529 111.135C245.354 110.753 245.206 110.288 245.164 109.868C245.13 109.527 245.183 109.174 245.366 108.881C245.558 108.573 245.899 108.373 246.193 108.181C245.743 107.823 245.358 107.386 245.041 106.904C244.425 105.965 244.044 104.781 244.357 103.661Z" fill="#191847"/>
<path fill-rule="evenodd" clip-rule="evenodd" d="M302.03 207.058H244.743C240.342 207.058 236.773 210.692 236.773 215.174V261.841C236.773 266.323 240.342 269.957 244.743 269.957H302.03C306.432 269.957 310 266.323 310 261.841V215.174C310 210.692 306.432 207.058 302.03 207.058ZM294.059 221.261C295.16 221.261 296.052 222.17 296.052 223.29V253.725C296.052 254.846 295.16 255.754 294.059 255.754H252.714C251.613 255.754 250.721 254.846 250.721 253.725V223.29C250.721 222.17 251.613 221.261 252.714 221.261H294.059Z" fill="#C5CFD6"/>
<path fill-rule="evenodd" clip-rule="evenodd" d="M201.152 268.263C207.534 253.878 212.15 241.352 214.003 234.744C217.175 223.428 219.588 213.472 220.198 209.753C221.653 200.886 209.009 200.37 207.338 204.777C204.808 211.446 200.393 233.36 195.087 266.461L201.152 268.263ZM275.186 223.12C269.33 220.762 248.822 213.386 238.932 211.299C236.089 210.7 233.335 210.143 230.745 209.639C223.046 208.143 219.058 222.285 226.472 223.371C244.937 226.077 271.114 228.872 273.354 229.185C276.494 229.625 278.866 224.601 275.186 223.12Z" fill="#B28B67"/>
<path fill-rule="evenodd" clip-rule="evenodd" d="M226.02 205.748L257.695 189.328V185.754H253.928C223.284 193.705 207.624 198.801 206.95 201.041C206.943 201.065 206.936 201.089 206.93 201.114C206.915 201.134 206.9 201.155 206.885 201.176C200.812 209.681 197.175 251.202 195.981 254.311L207.618 256.079C212.07 239.27 226.312 227.56 225.934 207.428C226.036 206.838 226.062 206.277 226.02 205.748Z" fill="#1F28CF"/>
<path fill-rule="evenodd" clip-rule="evenodd" d="M255.063 215.499C257.962 214.908 260.631 214.381 262.914 213.973C277.666 211.338 281.968 203.298 279.424 185.754H252.245C247.805 187.053 224.731 196.906 212.76 202.146C204.836 205.615 207.334 218.119 211.821 221.373C211.845 221.572 211.926 221.708 212.07 221.768C236.207 231.955 255.302 226.61 261.68 228.318L264.631 218.841L255.063 215.499Z" fill="#2B44FF"/>
<path fill-rule="evenodd" clip-rule="evenodd" d="M273.183 221.613C274.765 221.767 275.888 222.009 276.551 222.339C277.359 222.74 278.471 223.462 279.889 224.505C279.432 225.459 275.327 234.03 267.573 250.219C265.083 249.81 264.097 248.842 264.613 247.317C265.13 245.791 265.546 244.518 265.863 243.496L266.355 228.946C266.365 228.666 266.595 228.447 266.87 228.456C266.875 228.457 266.88 228.457 266.884 228.457L269.082 228.598C270.332 227.568 271.156 226.637 271.555 225.804C271.879 225.127 272.058 224.058 272.093 222.599L272.093 222.599C272.106 222.039 272.562 221.595 273.112 221.609C273.136 221.609 273.16 221.611 273.183 221.613Z" fill="#E4E4E4"/>
<path fill-rule="evenodd" clip-rule="evenodd" d="M204.056 265.595C204.614 267.11 204.892 268.244 204.892 268.996C204.892 269.911 204.743 271.245 204.443 273C203.401 273 194.036 273 176.347 273C175.617 270.542 176.039 269.215 177.612 269.02C179.185 268.824 180.491 268.647 181.532 268.489L194.591 262.561C194.842 262.446 195.136 262.561 195.248 262.817C195.25 262.822 195.252 262.826 195.254 262.831L196.093 264.904C197.55 265.596 198.733 265.942 199.643 265.942C200.383 265.942 201.405 265.638 202.708 265.029L202.708 265.029C203.208 264.796 203.8 265.019 204.029 265.529C204.039 265.551 204.048 265.573 204.056 265.595Z" fill="#E4E4E4"/>
<path fill-rule="evenodd" clip-rule="evenodd" d="M228.781 177.7L214.67 191.718C210.564 193.501 207.2 195.471 204.577 197.626C203.987 198.35 203.345 199.738 206.12 199.117C208.895 198.496 211.841 197.97 212.362 198.888C212.884 199.807 211.347 201.215 212.311 202.418C212.954 203.22 215.115 200.67 218.794 194.768L233.468 185.958L228.781 177.7ZM291.415 179.677L281.006 179.719C287.433 200.848 290.903 212.058 291.415 213.351C292.568 216.26 290.129 220.69 289.086 223.071C292.483 224.619 292.121 218.886 296.407 220.916C300.319 222.769 303.294 226.127 307.814 223.287C308.369 222.938 308.978 221.624 307.507 220.597C303.842 218.037 298.56 213.559 297.846 212.084C296.873 210.074 294.73 199.271 291.415 179.677Z" fill="#B28B67"/>
<path fill-rule="evenodd" clip-rule="evenodd" d="M261.832 135.198L257.525 134.445C250.109 153.31 237.161 170.451 218.682 185.868L232.645 203.143C251.123 181.191 262.512 158.543 261.832 135.198Z" fill="#191847"/>
<path fill-rule="evenodd" clip-rule="evenodd" d="M280.61 190.319H242.253C251.139 168.317 255.582 149.627 255.582 134.248L267.153 132.493C276.246 147.385 278.814 165.72 280.61 190.319Z" fill="#DDE3E9"/>
<path fill-rule="evenodd" clip-rule="evenodd" d="M267.398 132.501C267.396 132.499 267.395 132.496 267.393 132.493H266.638C265.734 132.525 264.358 132.582 262.508 132.664L259.713 140.8C259.417 150.72 257.69 170.71 254.531 200.772H279.675C279.609 202.848 279.501 204.943 279.349 207.058H298.045C295.248 174.931 285.036 150.076 267.407 132.493L267.398 132.501V132.501Z" fill="#2F3676"/>
<path fill-rule="evenodd" clip-rule="evenodd" d="M278.014 174.205C277.299 187.148 275.507 196.07 272.639 200.971H279.669C279.976 191.66 279.425 182.738 278.014 174.205V174.205Z" fill="black" fill-opacity="0.1"/>
<path fill-rule="evenodd" clip-rule="evenodd" d="M274.079 185.247L261.68 179.377V185.247H274.079Z" fill="white" fill-opacity="0.2"/>
<defs>
<linearGradient id="paint0_linear" x1="88.0156" y1="253.744" x2="238.764" y2="83.0114" gradientUnits="userSpaceOnUse">
<stop stop-color="#074947"/>
<stop offset="1" stop-color="#3AC1C1"/>
</linearGradient>
</defs>
</svg>
