<svg width="360" height="259" viewBox="0 0 360 259" fill="none" xmlns="http://www.w3.org/2000/svg">
<path fill-rule="evenodd" clip-rule="evenodd" d="M88.9786 137.965C18.0101 117.729 -42.6236 62.412 -85.3859 12.3766C-127.459 -36.8523 -154.708 -91.9384 -144.019 -134.662C-134.086 -174.367 -76.8295 -185.938 -31.3774 -203.499C5.23454 -217.644 46.4771 -224.282 93.1827 -226.307C145.999 -228.597 198.679 -239.87 256.848 -215.996C316.492 -191.517 364.958 -145.883 395.473 -102.242C423.629 -61.9746 415.373 -25.7591 415.954 11.5489C416.511 47.3768 430.579 90.8126 398.78 110.322C367.318 129.625 302.092 105.593 255.96 109.71C195.719 115.085 158.364 157.75 88.9786 137.965Z" fill="url(#paint0_linear)"/>
<defs>
<linearGradient id="paint0_linear" x1="63.4165" y1="129.419" x2="232.832" y2="-227.804" gradientUnits="userSpaceOnUse">
<stop stop-color="#147874"/>
<stop offset="1" stop-color="#3AC1C1"/>
</linearGradient>
</defs>
</svg>
