<svg width="360" height="247" viewBox="0 0 360 247" fill="none" xmlns="http://www.w3.org/2000/svg">
<path fill-rule="evenodd" clip-rule="evenodd" d="M135.062 -228.779C196.463 -269.77 278.043 -279.652 344.018 -279.335C408.931 -279.022 468.74 -263.481 494.544 -227.049C518.524 -193.191 490.35 -141.678 474.399 -95.2478C461.55 -57.8484 439.956 -21.8647 411.297 15.2548C378.888 57.231 353.446 105.041 297.539 133.821C240.214 163.331 173.919 170.293 120.762 164.82C71.7139 159.77 49.3207 129.504 20.3754 105.285C-7.42164 82.0267 -49.7834 64.0894 -44.1553 26.8311C-38.5869 -10.0322 22.0058 -44.1148 48.6928 -82.1773C83.5414 -131.88 75.0314 -188.703 135.062 -228.779Z" fill="url(#paint0_linear)"/>
<defs>
<linearGradient id="paint0_linear" x1="158.141" y1="-242.713" x2="322.115" y2="123.229" gradientUnits="userSpaceOnUse">
<stop stop-color="#147874"/>
<stop offset="1" stop-color="#3AC1C1"/>
</linearGradient>
</defs>
</svg>
