<svg width="271" height="273" viewBox="0 0 271 273" fill="none" xmlns="http://www.w3.org/2000/svg">
<path fill-rule="evenodd" clip-rule="evenodd" d="M237.037 101.38C246.804 118.885 251.557 138.962 250.64 158.975C249.602 181.625 248.321 208.072 231.472 222.784C214.54 237.57 188.404 230.007 166.166 232.741C146.98 235.099 128.615 240.058 109.375 237.793C87.7888 235.252 62.9773 234.911 47.9666 218.827C32.9578 202.744 35.8816 177.359 32.5939 155.518C29.6399 135.893 20.6758 114.623 29.6443 97.104C38.6324 79.5467 62.8597 78.2018 78.3209 66.1948C91.3038 56.1124 98.5689 39.94 113.089 32.3015C129.591 23.6203 149.139 12.8659 166.575 19.767C184.256 26.7648 186.379 51.7522 198.913 66.2702C210.42 79.5983 228.435 85.9652 237.037 101.38Z" fill="url(#paint0_linear)"/>
<path fill-rule="evenodd" clip-rule="evenodd" d="M96.9567 60.1458C95.2913 56.8244 94.5833 53.0927 95.9075 49.4492C99.7227 38.9512 114.765 45.2956 116.294 51.4719C117.824 57.6482 113.59 71.2535 109.368 71.2154C107.685 71.2002 104.596 69.405 101.733 66.5861L99.814 81.507L87.1595 78.2919L96.9567 60.1458Z" fill="#D4A181"/>
<path fill-rule="evenodd" clip-rule="evenodd" d="M101.549 60.5062C99.1728 62.9635 96.3947 64.5629 94.2264 64.012C90.1081 62.9657 88.6552 57.0009 90.2415 51.3876C90.2972 51.1904 90.3567 50.9955 90.4198 50.8032C85.2622 52.5309 80.3258 57.2653 74.5614 55.8008C66.7191 53.8083 67.843 38.0185 78.7999 40.8023C86.2514 42.6955 89.6256 44.6568 92.354 46.9827C93.4476 45.4756 94.7933 44.3168 96.2313 43.6341C96.5951 43.4069 97.1042 43.2303 97.7317 43.1062C98.1191 43.0167 98.5092 42.9628 98.899 42.9466C100.992 42.7668 103.883 42.9997 106.994 43.6807C107.575 43.8079 108.142 43.9459 108.692 44.0931C109.479 41.3415 112.466 39.7105 115.373 40.449C118.285 41.1888 120.013 44.0269 119.232 46.7881C118.478 49.4583 115.654 51.0787 112.835 50.5133C111.113 50.5745 108.974 50.3971 106.668 49.9655C106.666 50.8057 106.534 51.727 106.25 52.7337C105.998 53.6227 105.629 54.5392 105.168 55.4481C104.833 54.7696 104.278 54.2413 103.611 54.0719C101.746 53.598 100.036 54.7231 99.5997 56.2679C99.0457 58.2284 99.8386 59.95 101.549 60.5062Z" fill="#191847"/>
<path fill-rule="evenodd" clip-rule="evenodd" d="M71.0183 124.047L91.0139 189.38L100.419 238.434H109.859L100.436 124.047H71.0183Z" fill="#BA8B72"/>
<path fill-rule="evenodd" clip-rule="evenodd" d="M62.032 124.047C63.4272 157.988 62.877 176.499 62.5647 179.583C62.2524 182.667 60.4797 203.319 48.3994 239.469H58.2176C74.2159 204.789 79.8007 184.137 81.6356 179.583C83.4705 175.029 88.8897 156.517 96.8016 124.047H62.032Z" fill="#D4A181"/>
<path fill-rule="evenodd" clip-rule="evenodd" d="M70.589 124.047C75.7902 146.529 84.786 182.414 97.5765 231.705H111.383C112.403 181.113 108.065 147.815 100.552 124.047H70.589Z" fill="#69A1AC"/>
<path fill-rule="evenodd" clip-rule="evenodd" d="M61.9622 124.047C63.3287 157.988 59.7875 191.425 48.818 232.233H63.549C79.5767 198.071 91.0643 164.799 98.9152 124.047H61.9622Z" fill="#89C5CC"/>
<path fill-rule="evenodd" clip-rule="evenodd" d="M47 246.197L47.5417 237.916C50.7135 238.796 54.6862 238.451 59.4599 236.881C64.5927 240.328 71.0543 242.682 78.8445 243.943C79.4389 244.039 79.8385 244.574 79.7371 245.137C79.7305 245.174 79.7219 245.21 79.7112 245.246L78.9623 247.75H59.4599H48.0835L47 246.197Z" fill="#191847"/>
<path fill-rule="evenodd" clip-rule="evenodd" d="M98.3118 246.197L98.8535 237.916C102.025 238.796 105.998 238.451 110.772 236.881C115.904 240.328 122.366 242.682 130.156 243.943C130.751 244.039 131.15 244.574 131.049 245.137C131.042 245.174 131.034 245.21 131.023 245.246L130.274 247.75H110.772H99.3952L98.3118 246.197Z" fill="#191847"/>
<path fill-rule="evenodd" clip-rule="evenodd" d="M110.076 94.9503L130.537 88.38C134.29 85.4049 137.852 83.2027 141.223 81.7731C142.211 81.5627 143.861 81.6113 141.885 83.8924C139.909 86.1735 137.939 88.6572 138.56 89.5657C139.182 90.4741 141.297 89.7038 141.97 91.1531C142.419 92.1194 138.899 92.9386 131.41 93.6109L115.662 103.115L110.076 94.9503ZM137.779 108.012L146.769 105.113C148.691 101.156 150.454 99.2983 152.058 99.5397C153.388 99.203 150.273 104.088 152.687 104.023C155.101 103.958 161.531 100.899 162.359 101.877C163.584 103.324 161.605 106.805 159.74 108.39C156.255 111.352 153.681 112.134 147.571 112.7C144.377 112.996 140.785 114.059 136.796 115.889L137.779 108.012Z" fill="#D4A181"/>
<path fill-rule="evenodd" clip-rule="evenodd" d="M101.39 91.2725C107.938 92.2998 116.897 92.448 127.237 88.4058L129.453 96.7387C121.916 101.702 111.974 105.154 104.127 103.625C97.9431 102.42 96.0924 94.7615 101.39 91.2725Z" fill="#2026A2"/>
<path fill-rule="evenodd" clip-rule="evenodd" d="M107.887 105.128C114.521 107.929 126.516 107.939 143.873 105.159C146.446 113.783 147.265 119.762 146.33 123.095C131.029 127.691 118.446 128.778 108.514 127.328C107.794 132.947 106.094 138.123 102.794 142.561C96.0094 151.685 68.8282 137.641 58.7758 137.83C56.1757 118.078 69.3551 112.431 71.5938 100.445C74.0454 87.3192 88.92 68.9713 90.5556 69.2448L105.472 71.7386C104.43 81.9019 106.518 93.6437 107.887 105.128Z" fill="#1F28CF"/>
<path fill-rule="evenodd" clip-rule="evenodd" d="M201.794 99.5748C196.502 99.5748 194.578 93.7439 191.572 90.5441C189.421 88.2546 185.75 88.9373 184.663 85.7322C181.931 77.6725 189.244 72 198.785 72C208.325 72 214.758 76.975 216.147 84.4537C217.536 91.9324 211.335 99.5748 201.794 99.5748Z" fill="#191847"/>
<path fill-rule="evenodd" clip-rule="evenodd" d="M201.21 94.3687C203.343 92.0638 204.787 89.2391 204.546 86.0739C203.851 76.9541 190.058 78.9603 187.375 83.5632C184.692 88.1661 185.01 99.8417 188.478 100.664C189.861 100.992 192.807 100.189 195.805 98.5255L193.923 110.78H205.035L201.21 94.3687Z" fill="#B28B67"/>
<path fill-rule="evenodd" clip-rule="evenodd" d="M196.525 88.502C196.929 88.3054 197.392 88.1937 197.883 88.1937C199.458 88.1937 200.734 89.3385 200.734 90.7506C200.734 91.327 200.521 91.8588 200.162 92.2865C200.838 93.3111 201.299 94.3877 201.45 95.4944C203.791 95.4944 212.335 87.3414 203.824 79.6707C195.312 72 183.012 82.9504 186.708 83.589C188.833 83.9562 193.113 85.8235 196.525 88.502Z" fill="#191847"/>
<path fill-rule="evenodd" clip-rule="evenodd" d="M208.739 146.15L191.316 198.577L182.876 243.162H176.258L185.176 146.15H208.739Z" fill="#997659"/>
<path fill-rule="evenodd" clip-rule="evenodd" d="M214.972 146.15C213.789 174.935 215.182 189.783 215.446 192.398C215.711 195.014 219.338 211.971 227.924 244.04L220.873 241.811C207.303 212.399 202.679 197.113 201.123 193.251C199.566 189.389 195.433 173.688 188.722 146.15H214.972Z" fill="#B28B67"/>
<path fill-rule="evenodd" clip-rule="evenodd" d="M227.871 241.779C228.389 243.052 228.648 244.004 228.648 244.636C228.648 245.404 228.509 246.526 228.231 248C227.262 248 218.558 248 202.117 248C201.438 245.935 201.83 244.82 203.292 244.656C204.754 244.491 205.969 244.342 206.936 244.21L219.073 239.229C219.307 239.133 219.581 239.23 219.685 239.445C219.687 239.449 219.688 239.452 219.69 239.456L220.47 241.198C221.824 241.779 222.924 242.07 223.77 242.07C224.457 242.07 225.407 241.814 226.618 241.303L226.618 241.303C227.083 241.107 227.633 241.295 227.846 241.723C227.855 241.741 227.864 241.76 227.871 241.779Z" fill="#E4E4E4"/>
<path fill-rule="evenodd" clip-rule="evenodd" d="M184.349 241.779C184.867 243.052 185.126 244.004 185.126 244.636C185.126 245.404 184.987 246.526 184.709 248C183.74 248 175.035 248 158.594 248C157.916 245.935 158.308 244.82 159.77 244.656C161.232 244.491 162.446 244.342 163.413 244.21L175.551 239.229C175.785 239.133 176.058 239.23 176.162 239.445C176.164 239.449 176.166 239.452 176.168 239.456L176.948 241.198C178.301 241.779 179.401 242.07 180.247 242.07C180.935 242.07 181.884 241.814 183.096 241.303L183.096 241.303C183.561 241.107 184.11 241.295 184.324 241.723C184.333 241.741 184.341 241.76 184.349 241.779Z" fill="#E4E4E4"/>
<path fill-rule="evenodd" clip-rule="evenodd" d="M211.054 146.15L203.646 172.861H181.019L184.393 146.15H211.054Z" fill="#69A1AC"/>
<path fill-rule="evenodd" clip-rule="evenodd" d="M215.221 146.15C217.659 152.875 218.122 161.779 216.61 172.861H193.52L187.171 146.15H215.221Z" fill="#89C5CC"/>
<path fill-rule="evenodd" clip-rule="evenodd" d="M167.974 139.384L154.858 151.16C151.042 152.659 147.915 154.313 145.478 156.124C144.93 156.732 144.333 157.898 146.912 157.376C149.491 156.855 152.229 156.413 152.714 157.185C153.199 157.956 151.77 159.139 152.666 160.15C153.263 160.823 155.272 158.681 158.692 153.723L172.331 146.321L167.974 139.384ZM226.191 141.045L216.515 141.08C222.489 158.83 225.715 168.249 226.191 169.335C227.262 171.779 224.995 175.501 224.025 177.501C227.183 178.801 226.847 173.985 230.83 175.69C234.466 177.247 237.232 180.068 241.432 177.683C241.949 177.389 242.515 176.285 241.147 175.422C237.741 173.272 232.831 169.509 232.168 168.271C231.264 166.582 229.271 157.506 226.191 141.045Z" fill="#B28B67"/>
<path fill-rule="evenodd" clip-rule="evenodd" d="M198.694 103.677L194.691 103.045C187.798 118.893 175.763 133.294 158.587 146.246L171.566 160.759C188.74 142.317 199.326 123.289 198.694 103.677Z" fill="#191847"/>
<path fill-rule="evenodd" clip-rule="evenodd" d="M216.147 149.985H180.496C188.756 131.501 192.885 115.799 192.885 102.879L203.64 101.404C212.091 113.915 214.478 129.319 216.147 149.985Z" fill="#DDE3E9"/>
<path fill-rule="evenodd" clip-rule="evenodd" d="M203.867 101.411C203.866 101.409 203.864 101.407 203.863 101.404H203.161C202.321 101.431 201.042 101.479 199.323 101.548L196.724 108.383C196.449 116.717 194.844 133.511 191.908 158.767H215.279C215.217 160.511 215.116 162.271 214.976 164.048H232.352C229.753 137.058 220.261 116.176 203.876 101.404L203.867 101.411V101.411Z" fill="#2F3676"/>
<path fill-rule="evenodd" clip-rule="evenodd" d="M213.735 136.448C213.07 147.321 211.404 154.817 208.739 158.935H215.273C215.559 151.112 215.046 143.616 213.735 136.448V136.448Z" fill="black" fill-opacity="0.1"/>
<path fill-rule="evenodd" clip-rule="evenodd" d="M210.077 145.724L198.553 140.793V145.724H210.077Z" fill="white" fill-opacity="0.2"/>
<defs>
<linearGradient id="paint0_linear" x1="242.318" y1="108.214" x2="28.6817" y2="164.786" gradientUnits="userSpaceOnUse">
<stop stop-color="#074947"/>
<stop offset="1" stop-color="#3AC1C1"/>
</linearGradient>
</defs>
</svg>
